MOTHERS LITTLE HELPERS 2010 SCREENER(no watermarks video is clear) H264 PSP

Format                           : MPEG-4
Format profile                   : Base Media / Version 2
Codec ID                         : mp42
File size                        : 274 MiB
Duration                         : 1h 26mn
Overall bit rate                 : 442 Kbps
Encoded date                     : UTC 2010-05-06 02:28:56
Tagged date                      : UTC 2010-05-06 02:29:23
Writing application              : mp4creator 1.6.1d

Video
ID                               : 1
Format                           : AVC
Format/Info                      : Advanced Video Codec
Format profile                   : Baseline@L1.3
Format settings, CABAC           : No
Format settings, ReFrames        : 1 frame
Codec ID                         : avc1
Codec ID/Info                    : Advanced Video Coding
Duration                         : 1h 26mn
Bit rate mode                    : Variable
Bit rate                         : 375 Kbps
Width                            : 480 pixels
Height                           : 272 pixels
Display aspect ratio             : 16:9
Original display aspect ratio    : 1.569
Frame rate mode                  : Constant
Frame rate                       : 24.000 fps
Resolution                       : 24 bits
Colorimetry                      : 4:2:0
Scan type                        : Progressive
Bits/(Pixel*Frame)               : 0.120
Stream size                      : 232 MiB (85%)
Encoded date                     : UTC 2010-05-06 02:28:56
Tagged date                      : UTC 2010-05-06 02:29:21

Audio
ID                               : 2
Format                           : AAC
Format/Info                      : Advanced Audio Codec
Format version                   : Version 4
Format profile                   : LC
Format settings, SBR             : Yes
Format settings, PS              : No
Codec ID                         : 40
Duration                         : 1h 26mn
Bit rate mode                    : Variable
Bit rate                         : 66.15 Kbps
Maximum bit rate                 : 151 Kbps
Channel(s)                       : 2 channels
Channel positions                : L R
Sampling rate                    : 48.0 KHz
Resolution                       : 16 bits
Stream size                      : 40.7 MiB (15%)
Encoded date                     : UTC 2010-05-06 02:29:23
Tagged date                      : UTC 2010-05-06 02:29:23

A story of love, sex... and high school tuition. Meet Sam Lowell. Friend, lover, student, teacher... and owner of his very own escort service. Along with his "mother's little helpers" Sam learns about love and life in this sophisticated take on the classic high school sex comedy that explores a generation of kids growing up too fast and their parents who are desperately trying to stay young. 
http://www.imdb.com/title/tt1198075/

PLEASE SEED AND ENJOY THANKS

To watch this file on you,re PC then i recomend using VLC media player or MEDIA PLAYER CLASSIC 

To burn to disc the i recomend using CONVERTX 2 DVD click link below
 
http://thepiratebay.org/torrent/5018839/VSO.Convert-X.to.DVD.3.5.3%28vice%29

screen shots  
http://img204.imageshack.us/img204/7277/mlhh264vicemp4thumbs201.jpg